# xmcd
#
# Track frame offsets:
#	150
#	14762
#	32045
#	46822
#	61667
#	74492
#	88572
#
# Disc length: 1385 seconds
#
# Revision: 1
# Processed by: cddbd v1.5.2PL0 Copyright (c) Steve Scherf et al.
# Submitted via: audiograbber 1.83.01
#
DISCID=56056707
DTITLE=Suzanne Klee - Music-Jubilee Party
DYEAR=1995
DGENRE=Country
TTITLE0=Would You Lay With Me
TTITLE1=Long-Haired Country Boy
TTITLE2=Dixie Road
TTITLE3=Don't Walk Away
TTITLE4=Last Thing On My Mind
TTITLE5=As Long As I Had You
TTITLE6=Tequila Tears
EXTD=
EXTT0=
EXTT1=
EXTT2=
EXTT3=
EXTT4=
EXTT5=
EXTT6=
PLAYORDER=
